<svg width="300" height="300" viewBox="0 0 300 300" fill="none" xmlns="http://www.w3.org/2000/svg">
<path d="M255.555 300H44.4444C19.8067 300 0 280.193 0 255.555V44.4445C0 19.8068 19.8067 0 44.4444 0H255.555C280.193 0 300 19.8068 300 44.4445V255.555C300 280.193 279.71 300 255.555 300Z" fill="#231815"/>
<path d="M147.826 97.1021C147.826 97.1021 177.295 79.2277 195.169 69.0828C213.043 58.9378 223.188 55.5562 233.333 54.59C243.478 54.1069 255.072 59.4209 255.072 59.4209L222.705 39.1311C222.705 39.1311 218.357 36.2325 206.28 37.6818C194.203 39.1311 187.923 42.5127 180.193 46.3775C172.464 50.7253 120.773 81.1601 120.773 81.1601L147.826 97.1021Z" fill="white"/>
<path d="M225.12 83.5746C225.12 83.5746 240.096 104.348 228.502 141.063C216.907 177.778 189.854 198.55 187.922 200C186.473 201.449 169.564 211.111 169.564 211.111L170.048 240.096C170.048 240.096 224.154 221.256 246.859 169.082C267.149 123.188 254.105 98.5505 243.961 87.9225C238.163 81.6423 225.12 83.5746 225.12 83.5746Z" fill="white"/>
<path d="M147.826 239.614L120.773 223.672V81.6426L147.826 97.1015V239.614Z" fill="white"/>
<path d="M65.2162 198.068L38.1631 181.643V40.0968L64.7331 55.0727L65.2162 198.068Z" fill="white"/>
<path d="M38.1636 181.643C38.1636 181.643 31.4003 241.547 80.1926 263.286C108.212 275.846 128.985 268.6 138.647 258.938C146.376 251.208 147.342 239.614 147.342 239.614L120.289 223.189C120.289 223.189 120.289 228.986 115.941 233.334C111.11 238.648 103.381 243.962 85.9897 235.266C63.7675 223.672 64.7336 198.068 64.7336 198.068L38.1636 181.643Z" fill="white"/>
<path d="M64.7346 55.0725L86.4737 43.9614L61.8361 30.4348L38.1646 40.0966L64.7346 55.0725Z" fill="white"/>
</svg>
