<svg width="42" height="46" viewBox="0 0 42 46" fill="none" xmlns="http://www.w3.org/2000/svg">
<path d="M20.7833 13.2499C20.7833 13.2499 26.3217 9.8905 29.6812 7.9838C33.0406 6.07711 34.9473 5.44154 36.854 5.25995C38.7607 5.16916 40.9397 6.1679 40.9397 6.1679L34.8565 2.35451C34.8565 2.35451 34.0393 1.80974 31.7694 2.08213C29.4996 2.35451 28.3192 2.99008 26.8665 3.71644C25.4138 4.53359 15.6987 10.2537 15.6987 10.2537L20.7833 13.2499Z" fill="white"/>
<path d="M35.3103 10.7075C35.3103 10.7075 38.125 14.6117 35.9459 21.5121C33.7668 28.4125 28.6823 32.3167 28.3191 32.5891C28.0467 32.8615 24.8689 34.6774 24.8689 34.6774L24.9597 40.1251C24.9597 40.1251 35.1287 36.5841 39.3961 26.7782C43.2095 18.1527 40.758 13.5221 38.8513 11.5247C37.7618 10.3443 35.3103 10.7075 35.3103 10.7075Z" fill="white"/>
<path d="M20.7833 40.0343L15.6987 37.0381V10.3444L20.7833 13.2498V40.0343Z" fill="white"/>
<path d="M5.25712 32.226L0.172607 29.1389V2.53601L5.16632 5.35066L5.25712 32.226Z" fill="white"/>
<path d="M0.172679 29.139C0.172679 29.139 -1.09845 40.3976 8.07185 44.4834C13.338 46.8441 17.2421 45.4821 19.058 43.6662C20.5107 42.2135 20.6923 40.0344 20.6923 40.0344L15.6078 36.9474C15.6078 36.9474 15.6078 38.037 14.7907 38.8541C13.8827 39.8529 12.43 40.8516 9.16138 39.2173C4.98481 37.0382 5.1664 32.2261 5.1664 32.2261L0.172679 29.139Z" fill="white"/>
<path d="M5.16657 5.35064L9.25234 3.26236L4.62181 0.720093L0.172852 2.53599L5.16657 5.35064Z" fill="white"/>
</svg>
