<svg xmlns="http://www.w3.org/2000/svg" width="22" height="23" fill="none" viewBox="0 0 22 23">
  <path fill="#231815" d="M10.193 20.142c-5.008 0-9.085-4.077-9.085-9.085 0-5.008 4.077-9.085 9.085-9.085 5.008 0 9.085 4.077 9.085 9.085 0 5.008-4.077 9.085-9.085 9.085Zm0-16.84c-4.281 0-7.756 3.483-7.756 7.755s3.475 7.755 7.756 7.755c4.281 0 7.756-3.483 7.756-7.755S14.474 3.3 10.193 3.3ZM19.5 21.028a.657.657 0 0 1-.47-.195l-1.773-1.772a.669.669 0 0 1 0-.94.669.669 0 0 1 .94 0l1.773 1.773a.669.669 0 0 1 0 .94.657.657 0 0 1-.47.194Z"/>
</svg>
