<svg xmlns="http://www.w3.org/2000/svg" xmlns:xlink="http://www.w3.org/1999/xlink" style="display: none">
  <symbol id="logo" viewBox="0 0 42 46">
    <path d="M20.7833 13.2499C20.7833 13.2499 26.3217 9.8905 29.6812 7.9838C33.0406 6.07711 34.9473 5.44154 36.854 5.25995C38.7607 5.16916 40.9397 6.1679 40.9397 6.1679L34.8565 2.35451C34.8565 2.35451 34.0393 1.80974 31.7694 2.08213C29.4996 2.35451 28.3192 2.99008 26.8665 3.71644C25.4138 4.53359 15.6987 10.2537 15.6987 10.2537L20.7833 13.2499Z" fill="currentColor"/>
    <path d="M35.3103 10.7075C35.3103 10.7075 38.125 14.6117 35.9459 21.5121C33.7668 28.4125 28.6823 32.3167 28.3191 32.5891C28.0467 32.8615 24.8689 34.6774 24.8689 34.6774L24.9597 40.1251C24.9597 40.1251 35.1287 36.5841 39.3961 26.7782C43.2095 18.1527 40.758 13.5221 38.8513 11.5247C37.7618 10.3443 35.3103 10.7075 35.3103 10.7075Z" fill="currentColor"/>
    <path d="M20.7833 40.0343L15.6987 37.0381V10.3444L20.7833 13.2498V40.0343Z" fill="currentColor"/>
    <path d="M5.25712 32.226L0.172607 29.1389V2.53601L5.16632 5.35066L5.25712 32.226Z" fill="currentColor"/>
    <path d="M0.172679 29.139C0.172679 29.139 -1.09845 40.3976 8.07185 44.4834C13.338 46.8441 17.2421 45.4821 19.058 43.6662C20.5107 42.2135 20.6923 40.0344 20.6923 40.0344L15.6078 36.9474C15.6078 36.9474 15.6078 38.037 14.7907 38.8541C13.8827 39.8529 12.43 40.8516 9.16138 39.2173C4.98481 37.0382 5.1664 32.2261 5.1664 32.2261L0.172679 29.139Z" fill="currentColor"/>
    <path d="M5.16657 5.35064L9.25234 3.26236L4.62181 0.720093L0.172852 2.53599L5.16657 5.35064Z" fill="currentColor"/>
  </symbol>

  <symbol id="logo-text" viewBox="0 0 149 32">
    <path d="M143.916 19.4908H145.913V19.9448H145.096V22.0331H144.642V19.9448H143.825L143.916 19.4908Z" fill="currentColor"/>
    <path d="M146.276 19.4908H146.821L147.638 21.1252L148.455 19.4908H149V22.0331H148.546V20.2172L147.729 21.7607H147.456L146.639 20.2172V22.0331H146.276V19.4908Z" fill="currentColor"/>
    <path d="M141.192 19.6724C141.192 20.5804 141.192 21.3067 141.192 22.2147C137.469 22.2147 133.746 22.2147 130.115 22.2147C127.391 22.2147 127.391 22.2147 127.391 24.8478C127.391 28.7519 127.391 28.7519 131.204 28.7519C133.202 28.7519 135.199 28.6611 137.106 28.7519C138.559 28.8427 139.013 28.298 138.831 26.936C138.74 26.1189 138.831 25.2109 138.831 24.2122C139.739 24.2122 140.556 24.2122 141.646 24.2122C141.646 25.7557 141.736 27.2084 141.646 28.7519C141.555 30.2954 140.556 31.2034 139.103 31.2942C135.108 31.385 131.204 31.385 127.209 31.2942C125.393 31.2942 124.485 30.1139 124.485 28.298C124.485 26.4821 124.485 24.5754 124.485 22.7595C124.485 20.762 125.393 19.7632 127.3 19.6724C131.931 19.5816 136.47 19.6724 141.192 19.6724Z" fill="currentColor"/>
    <path d="M0.459543 0.423828H3.27419V9.14014C3.27419 9.32173 3.45578 9.50333 3.63737 9.50333H14.6236C14.8052 9.50333 14.9867 9.32173 14.9867 9.14014V0.423828H17.8922C17.8922 3.60165 17.983 6.68868 17.8922 9.77571C17.8922 11.2284 16.8934 12.1364 15.5315 12.1364C11.1734 12.2272 7.26917 12.2272 2.82022 12.1364C1.3675 12.1364 0.459543 11.1376 0.459543 9.59411C0.368748 6.59788 0.459543 3.51086 0.459543 0.423828Z" fill="currentColor"/>
    <path d="M63.8345 19.6724H66.6491V28.2071C66.6491 28.3887 66.8307 28.5703 67.0123 28.5703H79.7236V31.2033C79.7236 31.2033 67.1938 31.2033 67.103 31.2033C64.5608 31.2033 63.7437 30.2046 63.7437 27.9347C63.8344 25.4832 63.8345 22.3962 63.8345 19.6724Z" fill="currentColor"/>
    <path d="M100.425 19.7633C101.333 19.7633 102.059 19.7633 103.058 19.7633C103.058 23.5767 103.058 27.3901 103.058 31.2943C102.241 31.2943 101.424 31.2943 100.425 31.2943C100.425 27.3901 100.425 23.6675 100.425 19.7633Z" fill="currentColor"/>
    <path d="M57.7512 6.05321C57.7512 6.05321 58.2051 5.32685 58.2051 4.96367C58.7499 2.78459 57.9327 0.514716 55.7537 0.423921C50.8507 0.242331 45.9478 0.333121 40.8633 0.333121C40.8633 4.2373 40.8633 8.0507 40.8633 12.0457C45.4938 12.0457 50.0336 12.0457 54.5733 12.0457C58.1143 12.0457 58.6591 9.41262 58.1143 6.96116C58.1143 6.68877 57.7512 6.05321 57.7512 6.05321ZM54.7549 9.41262L43.9503 9.50342V7.32433C43.9503 7.32433 52.7574 7.32433 54.7549 7.32433C54.9365 7.32433 55.1181 7.50593 55.1181 7.68752V9.04944C55.1181 9.23103 54.9365 9.41262 54.7549 9.41262ZM54.7549 5.14526L43.9503 5.23606V3.05697C43.9503 3.05697 52.7574 3.05697 54.7549 3.05697C54.9365 3.05697 55.1181 3.23857 55.1181 3.42016V4.78208C55.1181 4.96367 54.9365 5.14526 54.7549 5.14526Z" fill="currentColor"/>
    <path d="M73.5494 2.6029C72.6415 0.787002 71.2795 0.423828 69.4636 0.423828C67.557 0.423828 66.2858 0.787002 65.3779 2.6029C65.3779 2.6029 61.9277 8.77696 59.9302 12.1364H63.4712L68.3741 3.23846C68.4649 3.14767 68.5557 3.05688 68.7373 3.05688H70.3716C70.4624 3.05688 70.644 3.14767 70.7348 3.23846L75.6377 12.1364C75.6377 12.1364 78.2708 12.1364 79.1787 12.1364C76.9996 8.77696 73.4586 2.6029 73.5494 2.6029Z" fill="currentColor"/>
    <path d="M97.7009 0.42393H94.7047C94.7047 3.32937 94.7047 6.23481 94.7047 9.50343C94.7047 9.50343 94.2507 9.59422 93.6151 9.04945C92.0716 7.59673 88.6214 3.42017 88.1674 2.96619C88.1674 2.96619 88.1674 2.87539 88.0766 2.87539C87.8043 2.51221 87.5319 2.23982 87.4411 2.14903C86.3516 1.05949 85.716 0.51472 83.7185 0.33313H81.0854C81.0854 3.87413 81.0854 8.50469 81.0854 12.0457H84.0817C84.0817 9.14025 84.0817 6.23481 84.0817 2.96619C84.0817 2.96619 84.5357 2.8754 85.1712 3.42017C86.7147 4.87289 90.1649 9.04945 90.6189 9.50343C90.6189 9.50343 90.6189 9.59422 90.7097 9.59422C90.9821 9.95739 91.2545 10.2298 91.3453 10.3206C92.4348 11.4101 93.0704 11.9549 95.0679 12.1365H97.7009C97.7009 8.59547 97.7009 3.96493 97.7009 0.42393Z" fill="currentColor"/>
    <path d="M17.8012 21.9424C17.8012 20.5805 16.8025 19.7633 15.259 19.7633C13.6247 19.7633 11.8996 19.7633 10.2652 19.7633C6.90583 19.7633 3.54643 19.7633 0.187012 19.7633C0.187012 23.6675 0.187012 27.3901 0.187012 31.2943C3.45563 31.2943 6.54265 31.2943 9.62968 31.2943C11.5364 31.2943 13.4431 31.2943 15.259 31.2943C16.7117 31.2943 17.7104 30.3863 17.8012 29.1152C17.8012 28.5704 17.8012 22.4871 17.8012 21.9424ZM14.9866 23.4859V27.5717V28.3888C14.9866 28.5704 14.805 28.752 14.6234 28.752H3.36484C3.18325 28.752 3.00165 28.5704 3.00165 28.3888V22.7595C3.00165 22.5779 3.18325 22.3964 3.36484 22.3964H14.805C14.9866 22.3964 14.9866 22.5779 14.9866 22.7595V23.4859Z" fill="currentColor"/>
    <path d="M122.125 19.6723H119.129C119.129 22.5778 119.129 25.4832 119.129 28.7518C119.129 28.7518 118.675 28.8426 118.039 28.2979C116.495 26.8451 113.045 22.6686 112.591 22.2146C112.591 22.2146 112.591 22.2146 112.5 22.1238C112.228 21.7606 111.956 21.4882 111.865 21.3974C110.775 20.3079 110.14 19.7631 108.142 19.5815H105.509C105.509 23.1225 105.509 27.7531 105.509 31.2941H108.506C108.506 28.3887 108.506 25.4832 108.506 22.2146C108.506 22.2146 108.959 22.1238 109.595 22.6686C111.139 24.1213 114.589 28.2979 115.043 28.7518C115.043 28.7518 115.043 28.7518 115.134 28.8426C115.406 29.2058 115.678 29.4782 115.769 29.569C116.859 30.6585 117.494 31.2033 119.492 31.3849H122.125C122.125 27.8439 122.125 23.2133 122.125 19.6723Z" fill="currentColor"/>
    <path d="M40.0462 19.6724C39.5923 22.1238 38.8659 25.3016 38.3211 27.7531C38.2303 28.2979 38.0487 28.6611 37.5948 28.6611C37.05 28.6611 37.05 28.2979 36.7776 27.7531C36.7776 27.7531 34.9617 22.941 34.0538 20.8527C33.6906 20.0355 33.1458 19.6724 32.3287 19.6724C31.9655 19.6724 31.6023 19.6724 31.3299 19.6724H31.2391H31.1483C30.8759 19.6724 30.5128 19.6724 30.1496 19.6724C29.3324 19.6724 28.7876 20.0355 28.4245 20.8527C27.5165 22.941 25.7006 27.7531 25.7006 27.7531C25.519 28.2979 25.4282 28.6611 24.8835 28.6611C24.4295 28.6611 24.2479 28.2979 24.1571 27.7531C23.6123 25.2109 22.9768 22.1238 22.432 19.6724C21.3425 19.6724 20.4345 19.6724 19.345 19.6724C20.0713 22.8502 20.7977 25.8464 21.4333 28.7519C21.7056 30.023 22.0688 31.2941 23.7031 31.2033C24.4295 31.2033 25.4282 31.2033 26.1546 31.2033C27.0625 31.2033 27.5165 30.5678 27.9705 29.2966L30.6036 22.3054C30.8759 21.5791 30.9667 21.4883 31.1483 21.4883C31.3299 21.4883 31.5115 21.5791 31.6931 22.3054L34.3261 29.2966C34.7801 30.5678 35.2341 31.2033 36.142 31.2033C36.8684 31.2033 37.7763 31.2033 38.5935 31.2033C40.2278 31.2033 40.591 30.023 40.8634 28.7519C41.4989 25.8464 42.2253 22.7594 42.9517 19.6724C42.0437 19.6724 41.1358 19.6724 40.0462 19.6724Z" fill="currentColor"/>
    <path d="M60.3842 24.4845H47.4005C47.1281 24.4845 46.9465 24.3029 46.9465 24.1213V22.7594C46.9465 22.5778 47.1281 22.3962 47.4005 22.3962C49.5796 22.3962 58.0235 22.3962 60.3842 22.3962H61.0198C61.0198 21.4883 61.0198 20.6711 61.0198 19.7632C56.026 19.7632 51.1231 19.6724 46.1294 19.854C44.0411 19.9448 43.4963 21.8515 43.4963 24.2121C43.4963 24.5753 43.4963 26.1188 43.4963 26.482C43.4963 28.9335 43.6779 31.4757 47.2189 31.4757C51.7587 31.4757 56.2984 31.4757 60.929 31.4757C60.929 30.5678 60.929 29.6598 60.929 28.8427H47.3097C47.0373 28.8427 46.8557 28.6611 46.8557 28.4795V26.936C46.8557 26.7544 47.0373 26.5728 47.3097 26.5728C49.7612 26.5728 60.929 26.5728 60.929 26.5728C60.929 25.8464 60.929 25.1201 60.929 24.4845H60.3842Z" fill="currentColor"/>
    <path d="M81.8117 19.6724H84.6264V28.2071C84.6264 28.3887 84.808 28.5703 84.9896 28.5703H97.7009V31.2033C97.7009 31.2033 85.1712 31.2033 85.0804 31.2033C82.5381 31.2033 81.7209 30.2046 81.7209 27.9347C81.8117 25.4832 81.8117 22.3962 81.8117 19.6724Z" fill="currentColor"/>
    <path d="M33.3273 7.59666H34.6893C37.1407 7.50586 37.4131 6.23474 37.4131 4.05566C37.4131 2.05817 36.8683 0.605443 34.5985 0.514648H22.7043H19.9805V12.2272H22.7043V7.68746H29.3324L34.2353 12.2272H38.0487C38.0487 12.1364 33.3273 7.59666 33.3273 7.59666ZM22.7951 5.1452V2.96612C23.5215 2.96612 31.7838 2.96612 33.6905 2.96612C33.8721 2.96612 34.0537 3.14771 34.0537 3.3293V4.69122C34.0537 4.87281 33.8721 5.0544 33.6905 5.0544L22.7951 5.1452Z" fill="currentColor"/>
  </symbol>


  <symbol id="search" viewBox="0 0 22 23">
    <path fill="currentColor" d="M10.193 20.142c-5.008 0-9.085-4.077-9.085-9.085 0-5.008 4.077-9.085 9.085-9.085 5.008 0 9.085 4.077 9.085 9.085 0 5.008-4.077 9.085-9.085 9.085Zm0-16.84c-4.281 0-7.756 3.483-7.756 7.755s3.475 7.755 7.756 7.755c4.281 0 7.756-3.483 7.756-7.755S14.474 3.3 10.193 3.3ZM19.5 21.028a.657.657 0 0 1-.47-.195l-1.773-1.772a.669.669 0 0 1 0-.94.669.669 0 0 1 .94 0l1.773 1.773a.669.669 0 0 1 0 .94.657.657 0 0 1-.47.194Z"/>
  </symbol>

  <symbol id="cart" viewBox="0 0 21 27">
    <path stroke="currentColor" stroke-linecap="round" stroke-linejoin="round" stroke-width="1.5" d="M1.167 9.9A2.368 2.368 0 0 1 3.5 7.5h14a2.368 2.368 0 0 1 2.333 2.4v10.8a4.735 4.735 0 0 1-4.666 4.8H5.833a4.735 4.735 0 0 1-4.666-4.8V9.9Z" clip-rule="evenodd"/>
    <path stroke="currentColor" stroke-linecap="round" stroke-linejoin="round" stroke-width="1.5" d="M15.167 11.1V6.3A4.735 4.735 0 0 0 10.5 1.5a4.735 4.735 0 0 0-4.667 4.8v4.8" />
  </symbol>

  <symbol id="mir" viewBox="0 0 46 13">
    <g clip-path="url(#clip0_4016_409)">
    <path d="M16.4204 12.9839H12.3268V5.36281H12.0556C11.2944 7.90375 10.5335 10.4417 9.77137 12.9856H6.66659C5.90653 10.4481 5.14442 7.90417 4.38068 5.35518H4.11888C4.10459 5.98946 4.11439 6.62036 4.11235 7.25125C4.11072 7.8851 4.11235 8.51896 4.11235 9.15282C4.11235 9.78667 4.11235 10.4205 4.11235 11.0544C4.11235 11.6878 4.11235 12.3213 4.11235 12.9492C3.9596 13.0072 0.249543 13.0208 0 12.9661V0.0254462C0.0882181 0.0195143 0.173169 0.00934552 0.258119 0.00892182C1.52421 0.00807442 2.7903 0.00807442 4.05599 0.00807442C4.23242 0.00807442 4.40927 0.0025663 4.5853 0.00892182C5.3911 0.0385809 5.91755 0.488975 6.22836 1.22367C6.36967 1.55713 6.46361 1.91303 6.56203 2.26428C7.04723 3.99426 7.52631 5.72592 8.00824 7.45674C8.02662 7.52326 8.05153 7.58809 8.07563 7.66012H8.3656C8.38929 7.58427 8.41584 7.50674 8.43789 7.42793C8.98109 5.50306 9.52224 3.57733 10.0675 1.65331C10.1876 1.22918 10.3754 0.841918 10.6903 0.530498C11.0036 0.220772 11.3805 0.0563763 11.8069 0.0216329C12.0638 0.000447796 12.3228 0.00934552 12.5809 0.00892182C13.7788 0.00807442 14.9766 0.00849812 16.1745 0.00849812H16.4094C16.4572 0.1873 16.4653 12.7441 16.4204 12.9843V12.9839Z" fill="white"/>
    <path d="M31.1151 12.9845H26.9431V5.36126H26.6111C26.5817 5.42312 26.5466 5.49049 26.5163 5.5604C25.6497 7.55688 24.7814 9.55294 23.9176 11.5507C23.5888 12.3108 23.0411 12.7892 22.2541 12.9688C22.1753 12.9866 22.0928 12.9947 22.0119 12.9947C20.8006 12.9964 19.5892 12.9959 18.3778 12.9951C18.3117 12.9951 18.2455 12.9879 18.165 12.9828V0.0518634C18.3055 -0.00109927 21.9833 -0.0222843 22.3415 0.0306783C22.3472 0.119656 22.3587 0.214141 22.3587 0.30905C22.3595 2.66102 22.3595 5.01298 22.3595 7.36495V7.64671H22.6646C22.6964 7.5823 22.7356 7.50943 22.7691 7.43443C23.6476 5.45109 24.5282 3.46901 25.4014 1.48313C25.6525 0.911553 26.0091 0.453108 26.5699 0.184906C26.8137 0.067964 27.0649 0.00398515 27.3381 0.00567995C28.5155 0.0120355 29.6926 0.00822216 30.8701 0.00822216C30.9505 0.00822216 31.0306 0.00822216 31.1045 0.00822216C31.1551 0.188295 31.1633 12.7472 31.1155 12.9849L31.1151 12.9845Z" fill="white"/>
    <path d="M45.9072 5.36881C45.8222 5.37305 45.7487 5.37941 45.6752 5.37941C43.2055 5.37898 40.7354 5.38449 38.2657 5.37093C37.745 5.36797 37.2189 5.37898 36.7047 5.23916C35.9194 5.02604 35.2259 4.63581 34.6186 4.08542C33.7923 3.33717 33.1952 2.42579 32.853 1.34281C32.7219 0.927579 32.6296 0.503031 32.6055 0.0331462C32.6851 0.0297566 32.7623 0.0238248 32.8395 0.0238248C34.6765 0.0217063 36.5136 0.0204352 38.3507 0.0187404C39.3782 0.017893 40.4054 0.0187404 41.433 0.0166219C42.2294 0.0145034 42.9891 0.178052 43.6915 0.57167C44.9458 1.27417 45.6838 2.36732 45.9391 3.81383C46.024 4.29558 46.0244 4.7786 45.937 5.26077C45.9321 5.28789 45.9223 5.31416 45.9072 5.36839V5.36881Z" fill="#808080"/>
    <path d="M45.6293 6.2031C45.5129 6.56282 45.3443 6.87466 45.136 7.16236C44.4408 8.12119 43.5039 8.69361 42.3918 8.98004C41.9801 9.08596 41.5615 9.12197 41.138 9.12113C39.7771 9.11816 38.4163 9.12028 37.0554 9.12028C36.9754 9.12028 36.8949 9.12028 36.7936 9.12028V12.9484C36.6303 13.0069 33.0395 13.0192 32.7957 12.9666V6.22513C32.8034 6.21538 32.8075 6.20945 32.8124 6.20479C32.8173 6.20013 32.8226 6.19505 32.8287 6.19378C32.8553 6.18827 32.8818 6.17979 32.9084 6.17979C37.1204 6.17979 41.3324 6.17979 45.5444 6.18064C45.5636 6.18064 45.5828 6.19039 45.6302 6.2031H45.6293Z" fill="white"/>
    </g>
    <defs>
    <clipPath id="clip0_4016_409">
    <rect width="46" height="13" fill="white"/>
    </clipPath>
    </defs>
  </symbol>

  <symbol id="visa" viewBox="0 0 45 14">
    <g clip-path="url(#clip0_4016_417)">
    <path d="M44.9985 13.7257V13.8069H41.6259C41.4793 13.1233 41.3357 12.4538 41.1914 11.7803H36.5073C36.2532 12.4546 35.9988 13.1301 35.7463 13.7996H31.9282C31.9482 13.7479 31.9628 13.7062 31.9806 13.6656C33.4046 10.3945 34.8286 7.12334 36.2532 3.85251C36.6255 2.99757 36.9973 2.1421 37.3741 1.28879C37.5224 0.953099 37.747 0.674799 38.0822 0.490439C38.4131 0.308516 38.7767 0.249228 39.1505 0.247062C40.0884 0.242189 41.0267 0.244626 41.9647 0.244896C41.9962 0.244896 42.0278 0.250852 42.0612 0.254101C42.3753 1.7011 42.6877 3.14214 43.0004 4.58318C43.3246 6.07728 43.6491 7.57138 43.973 9.06576C44.2682 10.4277 44.5626 11.79 44.8589 13.1517C44.9008 13.3439 44.9515 13.5343 44.9982 13.7254L44.9985 13.7257ZM37.5638 8.99889H40.5888C40.2263 7.30879 39.8661 5.62762 39.5006 3.92344C38.8519 5.62301 38.2116 7.30148 37.5638 8.99889Z" fill="white"/>
    <path d="M30.0298 0C30.1617 0.0170553 30.2932 0.03763 30.4257 0.0506246C31.1889 0.12426 31.9294 0.290753 32.6473 0.550644C32.6647 0.556871 32.6808 0.566346 32.7162 0.583401C32.5527 1.54933 32.3887 2.52094 32.2238 3.49607C31.9629 3.39374 31.7147 3.28897 31.4611 3.19855C30.5484 2.87288 29.6048 2.77704 28.6406 2.87477C28.232 2.91619 27.8417 3.02611 27.5068 3.27219C27.3115 3.41594 27.1688 3.59516 27.1046 3.82689C27.0233 4.12171 27.1162 4.37943 27.3303 4.58247C27.5189 4.76115 27.7266 4.93143 27.9537 5.06002C28.4169 5.32262 28.8956 5.56004 29.3732 5.798C30.0551 6.13776 30.6987 6.52705 31.2317 7.06741C31.7358 7.57853 32.0687 8.1752 32.1599 8.87825C32.2606 9.65522 32.139 10.4065 31.8056 11.1214C31.3544 12.0887 30.5906 12.7625 29.6231 13.2382C28.9375 13.5752 28.2084 13.7845 27.4482 13.8877C27.0638 13.9399 26.6752 13.9635 26.2885 14C26.0248 14 25.7611 14.0003 25.4974 14.0005C24.4454 13.9564 23.4095 13.8148 22.4026 13.5097C22.1943 13.4466 21.9908 13.3684 21.7809 13.2956C21.9528 12.2712 22.1217 11.2641 22.2922 10.2476C22.5371 10.3534 22.7662 10.4541 22.9966 10.5518C23.6332 10.8212 24.2881 11.0345 24.9821 11.1122C25.6443 11.1864 26.3079 11.2354 26.9693 11.1014C27.274 11.0397 27.5645 10.9401 27.8231 10.7703C28.1974 10.525 28.4132 10.1977 28.373 9.74483C28.3539 9.52988 28.2565 9.34876 28.1135 9.18742C27.9008 8.94729 27.6379 8.76455 27.3548 8.61349C26.913 8.37796 26.461 8.16031 26.0161 7.92992C25.3364 7.57772 24.6965 7.17326 24.1724 6.61774C23.4905 5.89492 23.208 5.0519 23.322 4.07948C23.4635 2.87315 24.0782 1.93862 25.0753 1.22338C25.8511 0.666783 26.7329 0.339483 27.6773 0.166493C28.026 0.102603 28.3817 0.0728236 28.7341 0.0262598C28.7541 0.0235526 28.7723 0.00947519 28.7915 0.000812159C29.2043 0.000812159 29.6169 0 30.0298 0Z" fill="white"/>
    <path d="M0 0.459904C0.0219512 0.392224 0.043621 0.324544 0.0697936 0.244141C0.115103 0.244141 0.166041 0.244141 0.216698 0.244141C2.08818 0.244141 3.95966 0.244141 5.83086 0.244141C6.10919 0.244141 6.38358 0.273649 6.64812 0.357572C7.16341 0.520816 7.45947 0.877895 7.56923 1.37683C7.70882 2.01086 7.83349 2.64786 7.96379 3.28378C8.14672 4.1758 8.32852 5.0681 8.51145 5.96012C8.60826 6.43252 8.70647 6.90493 8.803 7.37733C8.81116 7.41686 8.80976 7.45801 8.81285 7.49835C8.79456 7.46234 8.77345 7.42742 8.75826 7.39006C8.49006 6.73004 8.14925 6.10603 7.74287 5.51559C6.86989 4.247 5.75629 3.21177 4.44034 2.3747C4.24615 2.25126 4.04099 2.14378 3.8409 2.029C3.61829 1.90663 3.39991 1.77587 3.17223 1.66298C2.19962 1.18056 1.17861 0.820503 0.122702 0.550595C0.0835835 0.540579 0.0410882 0.544098 0 0.54112C0 0.514048 0 0.486976 0 0.459904Z" fill="#808080"/>
    <path d="M3.84086 2.0291C4.04095 2.14388 4.24611 2.25136 4.44029 2.37481C5.75652 3.21187 6.87013 4.2471 7.74283 5.5157C8.14921 6.10641 8.49001 6.73015 8.75821 7.39016C8.77341 7.42752 8.79452 7.46244 8.81281 7.49845C8.92425 8.0139 9.0357 8.52962 9.14714 9.04507C9.17669 9.18151 9.2054 9.31823 9.2417 9.48905C10.4378 6.39093 11.6226 3.32287 12.8088 0.250198H16.6612C16.5917 0.416962 16.525 0.579394 16.4566 0.741013C14.6386 5.03842 12.8209 9.33609 11.0017 13.6332C10.9221 13.8211 10.9691 13.7892 10.7642 13.7894C9.5918 13.7908 8.41909 13.79 7.24667 13.79H7.08204C7.01028 13.5339 6.93908 13.2832 6.86984 13.0322C5.93551 9.64309 5.00146 6.25422 4.06769 2.86508C3.99086 2.58651 3.91628 2.30767 3.84058 2.02883L3.84086 2.0291Z" fill="white"/>
    <path d="M19.5027 13.8004H15.8574C16.6173 9.28127 17.3757 4.76999 18.1353 0.251953H21.7806C21.0213 4.7681 20.2623 9.28208 19.5027 13.8004Z" fill="white"/>
    </g>
    <defs>
    <clipPath id="clip0_4016_417">
    <rect width="45" height="14" fill="white"/>
    </clipPath>
    </defs>
  </symbol>

  <symbol id="master-card" viewBox="0 0 49 29">
    <path d="M48.762 14.5C48.762 22.4564 42.2927 29 34.262 29C26.3056 29 19.762 22.4564 19.762 14.5C19.762 6.54359 26.2312 0 34.1876 0C42.2927 0 48.762 6.54359 48.762 14.5Z" fill="#808080"/>
    <path d="M29.3542 14.5744C29.3542 13.5333 29.2055 12.4923 29.0568 11.5256H20.1337C20.2081 11.0051 20.3568 10.559 20.5055 9.9641H28.4619C28.3132 9.44359 28.0901 8.92308 27.8671 8.40256H21.1004C21.3235 7.88205 21.6209 7.4359 21.9183 6.84103H27.0491C26.7517 6.32051 26.3799 5.8 25.9337 5.27949H23.1081C23.5542 4.75897 24.0004 4.31282 24.5953 3.79231C22.0671 1.41282 18.6465 0 14.8542 0C6.97218 0.223077 0.428589 6.54359 0.428589 14.5C0.428589 22.4564 6.89782 29 14.9286 29C18.7209 29 22.0671 27.5128 24.6696 25.2077C25.1901 24.7615 25.6363 24.241 26.1568 23.6462H23.1824C22.8106 23.2 22.4388 22.6795 22.1414 22.159H27.1978C27.4953 21.7128 27.7927 21.1923 28.0158 20.5974H21.2491C21.026 20.1513 20.8029 19.6308 20.6542 19.0359H28.6106C29.0568 17.6974 29.3542 16.2103 29.3542 14.5744Z" fill="#686868"/>
    <path d="M20.0617 18.2178L20.2848 16.8794C20.2104 16.8794 20.0617 16.9537 19.913 16.9537C19.3925 16.9537 19.3181 16.6563 19.3925 16.5076L19.8386 13.8307H20.6566L20.8797 12.3435H20.1361L20.2848 11.4512H18.7232C18.7232 11.4512 17.8309 16.5076 17.8309 17.1025C17.8309 17.9948 18.3514 18.4409 19.095 18.4409C19.5412 18.4409 19.913 18.2922 20.0617 18.2178Z" fill="white"/>
    <path d="M20.5819 15.7641C20.5819 17.9205 22.0691 18.4411 23.2588 18.4411C24.3742 18.4411 24.8947 18.218 24.8947 18.218L25.1922 16.7308C25.1922 16.7308 24.3742 17.1026 23.5563 17.1026C21.846 17.1026 22.1434 15.8385 22.1434 15.8385H25.2665C25.2665 15.8385 25.4896 14.8718 25.4896 14.4257C25.4896 13.459 24.9691 12.1949 23.2588 12.1949C21.7717 12.1205 20.5819 13.8308 20.5819 15.7641ZM23.2588 13.5334C24.0768 13.5334 23.9281 14.5 23.9281 14.5744H22.2178C22.2922 14.5 22.4409 13.5334 23.2588 13.5334Z" fill="white"/>
    <path d="M32.9981 18.218L33.2955 16.5078C33.2955 16.5078 32.552 16.8796 31.9571 16.8796C30.9161 16.8796 30.3955 16.0616 30.3955 15.095C30.3955 13.236 31.2878 12.2693 32.4032 12.2693C33.1468 12.2693 33.8161 12.7155 33.8161 12.7155L34.0391 11.0796C34.0391 11.0796 33.1468 10.7078 32.2545 10.7078C30.4699 10.7078 28.7596 12.2693 28.7596 15.1693C28.7596 17.1027 29.652 18.3668 31.5109 18.3668C32.1802 18.4411 32.9981 18.218 32.9981 18.218Z" fill="white"/>
    <path d="M11.6577 12.1201C10.6167 12.1201 9.79872 12.4176 9.79872 12.4176L9.57564 13.756C9.57564 13.756 10.2449 13.4586 11.2859 13.4586C11.8064 13.4586 12.2526 13.5329 12.2526 13.9791C12.2526 14.2765 12.1782 14.3509 12.1782 14.3509H11.509C10.1705 14.3509 8.75769 14.8714 8.75769 16.656C8.75769 18.0688 9.65 18.3663 10.2449 18.3663C11.2859 18.3663 11.8064 17.697 11.8808 17.697L11.8064 18.2919H13.0705L13.6654 14.0535C13.6654 12.1945 12.1782 12.1201 11.6577 12.1201ZM11.9551 15.5406C11.9551 15.7637 11.8064 17.0278 10.9141 17.0278C10.4679 17.0278 10.3192 16.656 10.3192 16.4329C10.3192 16.0611 10.5423 15.5406 11.732 15.5406C11.8808 15.5406 11.9551 15.5406 11.9551 15.5406Z" fill="white"/>
    <path d="M15.1528 18.3664C15.5246 18.3664 17.4579 18.4408 17.4579 16.3587C17.4579 14.4254 15.599 14.7972 15.599 14.0536C15.599 13.6818 15.8964 13.5331 16.4169 13.5331C16.64 13.5331 17.4579 13.6074 17.4579 13.6074L17.681 12.1946C17.681 12.1946 17.1605 12.0459 16.1938 12.0459C15.0784 12.0459 13.8887 12.4921 13.8887 14.0536C13.8887 15.8382 15.822 15.6895 15.822 16.3587C15.822 16.8049 15.3015 16.8792 14.9297 16.8792C14.2605 16.8792 13.5169 16.6562 13.5169 16.6562L13.2938 18.069C13.4425 18.2177 13.8887 18.3664 15.1528 18.3664Z" fill="white"/>
    <path d="M45.7855 10.9307L45.4881 13.0127C45.4881 13.0127 44.8932 12.2691 44.0009 12.2691C42.5881 12.2691 41.3983 13.9794 41.3983 15.9871C41.3983 17.2512 41.9932 18.5153 43.3317 18.5153C44.224 18.5153 44.8188 17.9204 44.8188 17.9204L44.7445 18.4409H46.306L47.4214 11.0794L45.7855 10.9307ZM45.0419 14.946C45.0419 15.764 44.6701 16.8794 43.7778 16.8794C43.2573 16.8794 42.9599 16.4332 42.9599 15.6153C42.9599 14.3512 43.4804 13.6076 44.224 13.6076C44.7445 13.6819 45.0419 14.0537 45.0419 14.946Z" fill="white"/>
    <path d="M3.25366 18.2922L4.14597 12.7896L4.29468 18.2922H5.33571L7.3434 12.7896L6.52545 18.2922H8.16135L9.42545 10.9307H6.89725L5.33571 15.4666L5.26135 10.9307H3.03058L1.76648 18.2922H3.25366Z" fill="white"/>
    <path d="M27.05 18.2925C27.4961 15.7643 27.5705 13.6823 28.6859 14.0541C28.8346 13.0874 29.0577 12.6412 29.2064 12.2694H28.909C28.2397 12.2694 27.6448 13.1617 27.6448 13.1617L27.7936 12.3438H26.3064L25.3397 18.2925H27.05Z" fill="white"/>
    <path d="M36.5688 12.1201C35.5278 12.1201 34.7098 12.4176 34.7098 12.4176L34.4868 13.756C34.4868 13.756 35.156 13.4586 36.197 13.4586C36.7175 13.4586 37.1637 13.5329 37.1637 13.9791C37.1637 14.2765 37.0893 14.3509 37.0893 14.3509H36.4201C35.0816 14.3509 33.6688 14.8714 33.6688 16.656C33.6688 18.0688 34.5611 18.3663 35.156 18.3663C36.197 18.3663 36.7175 17.697 36.7919 17.697L36.7175 18.2919H38.1304L38.7252 14.0535C38.7252 12.1945 37.0893 12.1201 36.5688 12.1201ZM36.9406 15.5406C36.9406 15.7637 36.7919 17.0278 35.8996 17.0278C35.4534 17.0278 35.3047 16.656 35.3047 16.4329C35.3047 16.0611 35.5278 15.5406 36.7175 15.5406C36.8663 15.5406 36.8663 15.5406 36.9406 15.5406Z" fill="white"/>
    <path d="M39.9155 18.2925C40.3616 15.7643 40.436 13.6823 41.5514 14.0541C41.7001 13.0874 41.9231 12.6412 42.0719 12.2694H41.7744C41.1052 12.2694 40.5103 13.1617 40.5103 13.1617L40.659 12.3438H39.1719L38.2052 18.2925H39.9155Z" fill="white"/>
  </symbol>
</svg>